<svg class="srchicon" viewBox="0 0 3264.000000 3264.000000" icons="https://www.threerolacent.my.id">
<g transform="translate(0.000000,3264.000000) scale(0.100000,-0.100000)">
<path d="M14105 27825 c-460 -20 -892 -62 -1180 -115 -27 -5 -81 -14 -120 -19
-125 -18 -269 -42 -315 -52 -173 -39 -351 -81 -470 -111 -117 -31 -129 -34
-235 -63 -62 -16 -237 -70 -360 -110 -38 -12 -92 -30 -120 -38 -27 -9 -95 -32
-150 -52 -55 -20 -145 -53 -200 -72 -107 -37 -301 -116 -449 -182 -27 -12 -70
-31 -97 -41 -72 -29 -487 -231 -591 -288 -29 -16 -125 -69 -213 -117 -140 -77
-235 -133 -478 -284 -31 -20 -133 -88 -225 -151 -92 -63 -195 -133 -227 -155
-71 -48 -472 -355 -509 -389 -6 -6 -92 -81 -191 -165 -212 -182 -285 -251
-540 -506 -206 -205 -378 -389 -471 -500 -32 -38 -61 -72 -64 -75 -3 -3 -30
-34 -60 -70 -30 -36 -58 -67 -61 -70 -10 -8 -351 -451 -388 -504 -121 -173
-219 -319 -290 -430 -100 -158 -191 -306 -213 -345 -40 -71 -122 -217 -160
-286 -60 -110 -328 -655 -328 -669 0 -6 -4 -16 -9 -21 -4 -6 -34 -73 -66 -150
-31 -77 -65 -159 -76 -181 -10 -23 -28 -68 -39 -100 -12 -33 -25 -68 -30 -79
-26 -62 -110 -296 -137 -380 -9 -27 -35 -108 -58 -180 -63 -197 -88 -276 -96
-315 -6 -32 -17 -72 -64 -245 -9 -33 -21 -78 -26 -100 -61 -277 -113 -531
-129 -635 -6 -41 -15 -97 -20 -125 -40 -222 -66 -446 -100 -870 -42 -533 -27
-1226 39 -1815 32 -276 39 -328 61 -445 6 -27 17 -95 25 -150 9 -55 23 -134
32 -175 8 -41 18 -86 20 -100 2 -14 15 -70 27 -125 13 -55 29 -127 36 -160 11
-52 25 -108 60 -240 5 -16 20 -75 34 -130 15 -55 49 -172 77 -260 28 -88 55
-176 61 -195 14 -46 57 -170 68 -195 5 -11 20 -54 35 -95 15 -41 30 -84 35
-95 4 -11 31 -81 60 -155 29 -74 63 -158 76 -185 12 -28 32 -73 43 -101 11
-29 30 -73 42 -100 12 -27 28 -65 37 -84 58 -133 314 -640 372 -735 9 -16 32
-57 50 -90 61 -110 71 -127 141 -237 38 -60 69 -111 69 -114 0 -3 13 -24 28
-47 16 -23 48 -71 72 -107 41 -62 220 -323 268 -392 57 -82 352 -459 393 -503
21 -22 48 -53 61 -70 12 -16 31 -39 41 -50 10 -11 51 -58 90 -105 40 -47 86
-98 102 -115 17 -17 59 -62 95 -100 335 -363 783 -776 1134 -1045 54 -41 125
-97 159 -123 176 -141 676 -476 874 -588 17 -10 49 -29 70 -42 35 -22 80 -47
233 -130 30 -17 87 -48 125 -70 100 -56 458 -230 610 -297 28 -12 64 -28 80
-35 17 -7 53 -23 81 -34 49 -19 85 -34 202 -87 29 -13 57 -24 62 -24 6 0 18
-4 28 -9 9 -6 51 -22 92 -36 84 -30 255 -93 285 -105 11 -4 74 -24 140 -45
141 -44 122 -38 260 -82 97 -31 230 -68 335 -93 19 -5 80 -20 135 -34 55 -15
123 -31 150 -36 53 -10 95 -19 210 -45 74 -17 145 -30 235 -45 30 -5 123 -21
205 -35 83 -15 184 -30 225 -35 41 -5 134 -16 205 -25 288 -35 582 -53 960
-61 315 -7 686 4 955 27 237 20 521 51 630 69 30 5 125 21 210 35 172 28 209
35 355 66 55 12 118 25 140 29 97 19 153 32 316 74 96 25 201 52 234 61 33 9
74 20 90 25 17 4 66 19 110 33 286 90 328 104 535 180 250 92 271 101 565 226
142 61 150 65 330 151 276 133 335 163 450 230 33 19 136 75 230 125 33 18 98
56 145 86 103 65 103 65 210 130 47 29 182 119 300 201 269 185 239 164 397
286 93 73 133 109 133 124 0 11 -20 55 -43 97 -51 90 -86 186 -118 326 -20 84
-24 128 -24 270 0 103 5 194 13 230 7 33 18 83 23 110 23 107 99 288 140 330
5 5 9 15 9 23 0 24 85 144 161 229 105 115 247 233 342 283 45 23 111 58 147
77 202 106 552 146 807 93 101 -21 265 -71 287 -88 6 -5 37 -21 68 -35 l57
-25 138 201 c236 343 354 534 524 842 18 33 48 87 66 120 76 135 288 575 348
720 21 50 46 110 57 135 29 64 43 97 68 160 12 30 26 64 30 75 5 11 20 54 35
95 15 41 30 84 35 95 15 35 78 209 89 245 11 36 61 190 101 315 12 39 26 84
30 100 5 17 16 57 25 90 66 242 112 429 134 545 5 25 21 99 35 165 15 66 31
147 36 180 5 33 17 112 28 175 42 246 83 590 102 850 17 239 30 567 30 755 0
326 -27 789 -62 1080 -11 94 -24 204 -29 245 -4 41 -12 102 -17 135 -6 33 -20
119 -31 190 -22 136 -36 213 -52 280 -13 57 -48 221 -59 280 -5 28 -17 77 -25
110 -9 33 -20 76 -25 95 -13 55 -46 179 -65 245 -9 33 -20 74 -24 90 -18 71
-175 552 -196 600 -7 17 -17 44 -23 60 -34 98 -66 185 -83 222 -10 24 -19 46
-19 49 0 3 -7 21 -15 40 -30 68 -44 101 -95 224 -29 69 -62 148 -75 175 -46
101 -255 522 -291 585 -20 36 -51 92 -69 125 -82 155 -115 210 -202 349 -51
81 -93 150 -93 152 0 18 -354 525 -480 687 -61 78 -127 164 -148 191 -20 27
-82 101 -137 165 -55 64 -109 127 -120 140 -198 241 -695 740 -945 951 -36 30
-83 71 -105 91 -52 47 -158 136 -204 172 -20 15 -43 33 -51 40 -210 174 -627
470 -895 637 -82 51 -166 103 -185 115 -83 52 -140 85 -215 125 -96 51 -177
96 -225 123 -43 25 -549 277 -555 277 -6 0 -92 37 -118 51 -9 5 -51 23 -91 39
-41 16 -96 39 -123 51 -98 44 -114 50 -210 85 -343 125 -721 251 -863 289 -14
3 -56 14 -95 25 -38 10 -97 26 -130 35 -33 9 -78 21 -100 26 -22 6 -56 14 -75
18 -32 8 -134 32 -220 51 -67 15 -356 69 -430 80 -41 6 -100 15 -130 21 -345
58 -810 101 -1300 119 -151 6 -286 9 -300 9 -14 -1 -151 -7 -305 -14z m750
-1860 c410 -21 610 -41 865 -85 30 -5 98 -17 151 -25 53 -9 127 -22 165 -31
38 -8 92 -19 119 -24 94 -18 140 -29 240 -53 135 -34 255 -66 285 -76 14 -5
45 -14 70 -21 25 -7 72 -22 105 -33 33 -11 87 -27 120 -37 58 -18 219 -73 260
-89 21 -9 45 -18 185 -72 47 -17 103 -40 125 -49 22 -10 69 -30 105 -45 65
-27 102 -43 216 -96 85 -38 430 -211 479 -239 22 -12 78 -44 125 -70 74 -41
143 -82 290 -175 19 -12 60 -37 90 -56 162 -99 605 -421 725 -528 17 -14 44
-37 60 -49 17 -13 46 -38 65 -55 19 -18 64 -57 100 -87 36 -30 96 -84 135
-120 38 -36 106 -99 150 -140 278 -259 614 -642 892 -1015 75 -101 244 -346
296 -430 144 -231 178 -287 221 -364 25 -46 46 -85 46 -86 0 -2 19 -36 43 -77
39 -66 89 -165 212 -423 49 -102 59 -125 110 -250 21 -49 46 -110 57 -135 28
-63 32 -73 73 -185 20 -55 41 -111 46 -125 25 -59 142 -424 169 -526 12 -43
28 -104 36 -134 41 -150 56 -211 70 -280 8 -41 25 -124 39 -185 13 -60 28
-139 34 -175 6 -36 20 -123 32 -195 12 -71 25 -167 30 -212 5 -46 13 -122 19
-170 58 -528 58 -1169 0 -1693 -5 -47 -14 -123 -19 -170 -8 -75 -22 -167 -62
-410 -6 -36 -22 -117 -36 -180 -13 -63 -29 -137 -35 -165 -5 -27 -23 -102 -40
-165 -16 -63 -33 -131 -38 -150 -17 -71 -52 -197 -70 -250 -10 -30 -35 -109
-55 -175 -20 -66 -47 -147 -60 -180 -13 -33 -33 -87 -45 -120 -38 -105 -47
-128 -76 -200 -28 -72 -49 -121 -85 -201 -11 -26 -29 -67 -39 -93 -25 -64
-213 -447 -259 -529 -37 -65 -52 -92 -121 -217 -18 -33 -41 -72 -51 -87 -11
-14 -19 -28 -19 -31 0 -9 -216 -345 -299 -464 -101 -146 -414 -550 -450 -583
-4 -3 -31 -34 -61 -70 -166 -196 -395 -434 -595 -619 -159 -147 -181 -167
-245 -221 -36 -30 -85 -72 -110 -95 -48 -43 -94 -79 -176 -142 -28 -21 -97
-74 -154 -118 -134 -104 -289 -211 -470 -326 -80 -50 -157 -100 -172 -110 -15
-11 -30 -19 -34 -19 -3 0 -18 -8 -32 -19 -90 -62 -637 -348 -787 -411 -11 -4
-36 -15 -55 -23 -134 -58 -347 -144 -442 -178 -62 -22 -140 -51 -173 -64 -62
-24 -74 -28 -215 -71 -47 -14 -94 -29 -105 -34 -22 -9 -98 -31 -185 -54 -30
-8 -98 -26 -150 -41 -52 -14 -117 -30 -145 -36 -27 -6 -66 -15 -85 -19 -319
-71 -335 -74 -620 -116 -458 -68 -981 -94 -1477 -76 -315 12 -488 24 -603 42
-36 5 -108 14 -160 21 -190 22 -375 52 -525 86 -145 32 -179 39 -250 53 -33 7
-80 18 -105 25 -25 7 -56 16 -70 20 -205 53 -267 70 -320 88 -25 8 -97 32
-160 52 -109 34 -231 77 -275 95 -11 5 -54 20 -95 35 -81 29 -95 34 -152 59
-20 9 -39 16 -42 16 -3 0 -26 9 -51 20 -25 11 -66 29 -91 40 -25 12 -78 34
-117 49 -40 16 -110 48 -157 71 -47 23 -123 60 -170 83 -47 23 -112 57 -145
75 -33 19 -98 55 -145 80 -203 109 -456 268 -692 433 -112 78 -217 154 -234
168 -17 14 -55 44 -84 66 -65 49 -213 167 -220 175 -3 3 -54 48 -115 100 -488
417 -973 955 -1350 1495 -135 193 -288 433 -362 565 -40 72 -88 157 -125 225
-79 142 -240 478 -303 630 -20 50 -45 108 -55 130 -31 70 -51 119 -66 165 -9
25 -21 59 -29 75 -7 17 -23 59 -35 95 -12 36 -25 74 -30 85 -11 27 -50 142
-60 180 -4 17 -24 82 -45 145 -34 107 -76 258 -95 340 -5 19 -20 82 -35 140
-14 58 -29 125 -34 150 -5 25 -16 79 -24 120 -9 41 -23 118 -32 170 -8 52 -20
118 -25 145 -55 298 -100 861 -100 1255 0 374 39 914 89 1225 24 149 51 298
67 371 9 43 20 97 24 119 16 83 30 143 55 240 15 55 37 141 50 190 12 50 25
97 28 105 3 8 22 69 42 135 59 186 106 323 197 565 25 67 39 100 67 163 12 27
35 81 50 120 65 163 306 648 370 747 9 14 30 50 46 80 16 30 48 85 72 123 24
37 43 69 43 72 0 3 16 27 35 54 19 26 35 51 35 55 0 23 341 505 455 644 8 9
36 45 62 78 363 462 942 1019 1464 1408 144 107 407 288 509 350 47 29 126 77
175 108 50 30 113 67 140 83 28 15 91 50 140 78 154 86 480 245 620 302 50 20
113 47 140 59 71 32 165 69 280 111 55 20 109 41 120 46 24 10 185 63 345 113
63 20 129 40 145 46 46 14 339 88 425 106 41 9 127 27 190 40 63 14 142 29
175 35 33 5 83 14 110 18 135 23 463 66 585 77 117 10 561 31 700 33 69 0 260
-6 425 -14z"/>
<path d="M21735 11755 c-214 -41 -458 -190 -595 -365 -72 -91 -149 -227 -179
-317 -59 -174 -65 -401 -16 -583 23 -87 94 -244 134 -296 9 -12 42 -55 73 -95
88 -114 4095 -4114 4193 -4186 112 -81 251 -149 370 -179 134 -34 327 -36 460
-5 95 22 183 54 225 80 14 9 47 27 75 41 117 59 291 227 346 335 109 212 131
275 150 425 32 265 -43 523 -217 745 -75 96 -4132 4149 -4222 4218 -34 26 -70
51 -80 54 -9 4 -44 22 -77 41 -32 18 -104 47 -160 63 -89 27 -117 31 -255 34
-102 2 -179 -1 -225 -10z"/>
</g>
</svg>